<svg xmlns="http://www.w3.org/2000/svg" xmlns:xlink="http://www.w3.org/1999/xlink" width="500" zoomAndPan="magnify" viewBox="0 0 375 374.999991" height="500" preserveAspectRatio="xMidYMid meet" version="1.0"><defs><clipPath id="523feb7e43"><path d="M 187.5 0 C 83.945312 0 0 83.945312 0 187.5 C 0 291.054688 83.945312 375 187.5 375 C 291.054688 375 375 291.054688 375 187.5 C 375 83.945312 291.054688 0 187.5 0 " clip-rule="nonzero"/></clipPath><clipPath id="8f81b8b183"><path d="M 139 74 L 237 74 L 237 302.183594 L 139 302.183594 Z M 139 74 " clip-rule="nonzero"/></clipPath></defs><rect x="-37.5" width="450" fill="#ffffff" y="-37.499999" height="449.999989" fill-opacity="1"/><rect x="-37.5" width="450" fill="#ffffff" y="-37.499999" height="449.999989" fill-opacity="1"/><rect x="-37.5" width="450" fill="#ffffff" y="-37.499999" height="449.999989" fill-opacity="1"/><g clip-path="url(#523feb7e43)"><rect x="-37.5" width="450" fill="#000000" y="-37.499999" height="449.999989" fill-opacity="1"/><path stroke-linecap="butt" transform="matrix(0.75, 0, 0, 0.75, 0.0000045, 0)" fill="none" stroke-linejoin="miter" d="M 249.999994 0 C 111.927078 0 -0.000006 111.927084 -0.000006 250 C -0.000006 388.072917 111.927078 500.000001 249.999994 500.000001 C 388.072911 500.000001 499.999995 388.072917 499.999995 250 C 499.999995 111.927084 388.072911 0 249.999994 0 " stroke="#ffffff" stroke-width="8" stroke-opacity="1" stroke-miterlimit="4"/></g><path fill="#ffffff" d="M 106.566406 269.859375 C 101.71875 269.859375 98.488281 268.242188 95.257812 265.007812 L 30.628906 200.363281 C 24.167969 193.898438 24.167969 184.199219 30.628906 177.734375 L 95.257812 113.085938 C 101.71875 106.621094 111.414062 106.621094 117.875 113.085938 C 124.339844 119.550781 124.339844 129.25 117.875 135.714844 L 64.558594 189.046875 L 117.875 242.382812 C 124.339844 248.847656 124.339844 258.542969 117.875 265.007812 C 114.644531 268.242188 111.414062 269.859375 106.566406 269.859375 Z M 106.566406 269.859375 " fill-opacity="1" fill-rule="nonzero"/><path fill="#ffffff" d="M 268.132812 269.859375 C 263.285156 269.859375 260.054688 268.242188 256.824219 265.007812 C 250.359375 258.542969 250.359375 248.847656 256.824219 242.382812 L 310.140625 189.046875 L 256.824219 135.714844 C 250.359375 129.25 250.359375 119.550781 256.824219 113.085938 C 263.285156 106.621094 272.980469 106.621094 279.441406 113.085938 L 344.070312 177.734375 C 350.53125 184.199219 350.53125 193.898438 344.070312 200.363281 L 279.441406 265.007812 C 276.210938 268.242188 272.980469 269.859375 268.132812 269.859375 Z M 268.132812 269.859375 " fill-opacity="1" fill-rule="nonzero"/><g clip-path="url(#8f81b8b183)"><path fill="#ffffff" d="M 155.035156 302.183594 C 153.421875 302.183594 151.804688 302.183594 150.1875 300.566406 C 142.109375 297.332031 137.265625 289.253906 140.496094 279.554688 L 205.121094 85.613281 C 208.351562 77.53125 216.429688 72.683594 226.125 75.914062 C 234.203125 79.148438 239.050781 87.226562 235.820312 96.925781 L 171.191406 290.867188 C 167.960938 297.332031 161.5 302.183594 155.035156 302.183594 Z M 155.035156 302.183594 " fill-opacity="1" fill-rule="nonzero"/></g></svg>